# Blender v3.0.0 OBJ File: ''
# www.blender.org
mtllib planeland.mtl
o 平面_平面.001
v 0.250785 0.000000 -0.875208
v 1.284041 0.000000 -0.336512
v 1.321619 0.000000 -1.060396
v -0.297759 0.000000 -0.923111
v -0.084385 0.000000 -1.123366
v -0.157795 0.000000 -0.730099
v -0.428856 0.000000 -1.143144
v 0.034054 0.000000 -0.443315
v 0.481043 0.000000 -0.099173
v 0.113167 0.000000 -0.306845
v 0.170524 0.000000 -0.148619
v 0.431598 0.000000 0.167834
v 0.152724 0.000000 0.223213
v 0.441486 0.000000 0.543620
v 0.138879 0.000000 0.689980
v 0.500821 0.000000 0.749314
v 0.194258 0.000000 0.925341
v 0.609602 0.000000 0.885784
v 0.297105 0.000000 1.038077
v 0.407863 0.000000 1.095434
v 0.528511 0.000000 1.095434
v 0.706515 0.000000 1.129057
v 0.860786 0.000000 0.864028
v 0.900342 0.000000 1.131035
v 1.074391 0.000000 0.885784
v 1.220750 0.000000 1.136968
v 1.236572 0.000000 0.729536
vt 0.000000 0.000000
vt 0.000000 0.000000
vt 0.000000 0.000000
vt 0.000000 0.000000
vt 0.000000 0.000000
vt 0.000000 0.000000
vt 0.000000 0.000000
vt 0.000000 0.000000
vt 0.000000 0.000000
vt 0.000000 0.000000
vt 0.000000 0.000000
vt 0.000000 0.000000
vt 0.000000 0.000000
vt 0.000000 0.000000
vt 0.000000 0.000000
vt 0.000000 0.000000
vt 0.000000 0.000000
vt 0.000000 0.000000
vt 0.000000 0.000000
vt 0.000000 0.000000
vt 0.000000 0.000000
vt 0.000000 0.000000
vt 0.000000 0.000000
vt 0.000000 0.000000
vt 0.000000 0.000000
vt 0.000000 0.000000
vt 0.000000 0.000000
vn 0.0000 1.0000 0.0000
usemtl None
s off
f 5/1/1 1/2/1 2/3/1 3/4/1
f 1/2/1 4/5/1 6/6/1 8/7/1
f 4/5/1 1/2/1 5/1/1 7/8/1
f 2/3/1 1/2/1 10/9/1 9/10/1
f 9/10/1 10/9/1 11/11/1 12/12/1
f 12/12/1 11/11/1 13/13/1 14/14/1
f 14/14/1 13/13/1 15/15/1 16/16/1
f 16/16/1 15/15/1 17/17/1 18/18/1
f 18/18/1 17/17/1 19/19/1 20/20/1
f 18/18/1 20/20/1 21/21/1 22/22/1
f 18/18/1 22/22/1 24/23/1 23/24/1
f 23/24/1 24/23/1 26/25/1 25/26/1
f 25/26/1 26/25/1 27/27/1
f 9/10/1 12/12/1 14/14/1 16/16/1 18/18/1 23/24/1 25/26/1 27/27/1 2/3/1
f 1/2/1 8/7/1 10/9/1
