# Blender v3.0.0 OBJ File: ''
# www.blender.org
mtllib boat.mtl
o Cube
v 1.215413 0.767470 -2.290319
v 1.200000 -0.722315 -2.000000
v 1.159840 0.776288 2.347011
v 1.200000 -0.722315 2.000000
v -1.215413 0.767470 -2.290319
v -1.200000 -0.722315 -2.000000
v -1.159840 0.776288 2.347011
v -1.200000 -0.722315 2.000000
v -1.200000 0.166611 4.000000
v -0.963943 0.979416 3.652989
v 0.963943 0.979416 3.652989
v 1.200000 0.166611 4.000000
v 1.200000 0.166611 -4.000000
v -1.200000 0.166611 -4.000000
v 1.002509 0.988233 -3.709681
v -1.002509 0.988233 -3.709681
v 1.189061 0.722315 1.585415
v -1.189061 0.722315 1.585415
v 1.200000 1.033389 4.000000
v -1.200000 1.033389 4.000000
v 1.500000 0.722315 2.000000
v -1.500000 0.722315 2.000000
v 1.200000 1.033389 4.000000
v -1.200000 1.033389 4.000000
v 1.500000 0.722315 2.000000
v -1.500000 0.722315 2.000000
v 1.200000 1.033389 4.000000
v -1.200000 1.033389 4.000000
v 1.159840 0.434298 2.400203
v -1.159840 0.434298 2.400203
v 0.963943 0.637427 3.706181
v -0.963943 0.637427 3.706181
v -1.189061 0.722315 -1.585415
v 1.189061 0.722315 -1.585415
v -1.200000 1.033389 -4.000000
v 1.200000 1.033389 -4.000000
v -1.500000 0.722315 -2.000000
v 1.500000 0.722315 -2.000000
v -1.200000 1.033389 -4.000000
v 1.200000 1.033389 -4.000000
v -1.500000 0.722315 -2.000000
v 1.500000 0.722315 -2.000000
v -1.200000 1.033389 -4.000000
v 1.200000 1.033389 -4.000000
v -1.215413 0.285643 -2.365261
v 1.215413 0.285643 -2.365261
v -1.002509 0.506407 -3.784623
v 1.002509 0.506407 -3.784623
v 1.500000 0.722315 2.000000
v -1.500000 0.722315 2.000000
v 1.500000 0.722315 -2.000000
v -1.500000 0.722315 -2.000000
v 1.189061 0.080388 1.585415
v -1.189061 0.080388 1.585415
v 1.189061 0.080388 -1.585415
v -1.189061 0.080388 -1.585415
vt 0.650912 0.525912
vt 0.849088 0.525912
vt 0.849088 0.525912
vt 0.650912 0.525912
vt 0.625000 0.000000
vt 0.125000 0.750000
vt 0.375000 1.000000
vt 0.625000 0.000000
vt 0.125000 0.500000
vt 0.375000 0.500000
vt 0.375000 0.750000
vt 0.625000 0.500000
vt 0.625000 0.750000
vt 0.375000 0.500000
vt 0.625000 0.500000
vt 0.375000 0.750000
vt 0.625000 0.750000
vt 0.625000 1.000000
vt 0.125000 0.750000
vt 0.849713 0.750000
vt 0.847115 0.750000
vt 0.847115 0.750000
vt 0.849713 0.750000
vt 0.375000 0.250000
vt 0.625000 0.250000
vt 0.375000 0.250000
vt 0.625000 0.250000
vt 0.125000 0.500000
vt 0.853902 0.500000
vt 0.646098 0.500000
vt 0.646098 0.500000
vt 0.853902 0.500000
vt 0.875000 0.750000
vt 0.625000 0.750000
vt 0.875000 0.750000
vt 0.625000 0.750000
vt 0.875000 0.750000
vt 0.875000 0.750000
vt 0.875000 0.750000
vt 0.625000 0.750000
vt 0.625000 0.750000
vt 0.875000 0.750000
vt 0.650287 0.750000
vt 0.652885 0.750000
vt 0.650287 0.750000
vt 0.652885 0.750000
vt 0.875000 0.500000
vt 0.875000 0.500000
vt 0.625000 0.500000
vt 0.875000 0.500000
vt 0.625000 0.500000
vt 0.875000 0.500000
vt 0.875000 0.500000
vt 0.625000 0.500000
vt 0.625000 0.500000
vt 0.851598 0.500000
vt 0.648402 0.500000
vt 0.648402 0.500000
vt 0.851598 0.500000
vt 0.650912 0.724088
vt 0.849088 0.724088
vt 0.849088 0.724088
vt 0.650912 0.724088
vn 0.0000 0.0000 1.0000
vn -0.9854 -0.1279 0.1123
vn 0.0000 -1.0000 0.0000
vn 0.9791 -0.2033 0.0000
vn 0.9854 -0.1279 -0.1123
vn 0.0000 -0.9138 0.4062
vn 0.9892 -0.0225 -0.1449
vn 0.9854 -0.1279 0.1123
vn 0.0000 0.0000 -1.0000
vn -0.9854 -0.1279 -0.1123
vn 0.0000 -0.9138 -0.4062
vn 0.0000 0.1537 -0.9881
vn 0.0000 0.9881 -0.1537
vn 0.0000 0.1537 0.9881
vn -0.9892 -0.0225 -0.1449
vn 0.0000 -0.1537 -0.9881
vn 0.0000 0.9881 0.1537
vn -0.9791 -0.2033 0.0000
vn 0.9892 -0.0225 0.1449
vn 0.0000 -0.1537 0.9881
vn -0.9892 -0.0225 0.1449
vn 0.0000 1.0000 0.0000
vn -1.0000 0.0000 0.0000
vn 1.0000 0.0000 0.0000
usemtl Material
s off
f 34/1/1 33/2/1 56/3/1 55/4/1
f 50/5/2 8/6/2 9/7/2 20/8/2
f 6/9/3 2/10/3 4/11/3 8/6/3
f 2/10/4 51/12/4 49/13/4 4/11/4
f 51/12/5 2/10/5 13/14/5 36/15/5
f 12/16/1 19/17/1 20/18/1 9/7/1
f 8/6/6 4/11/6 12/16/6 9/19/6
f 7/20/7 10/21/7 32/22/7 30/23/7
f 4/11/8 49/13/8 19/17/8 12/16/8
f 14/24/9 35/25/9 36/15/9 13/14/9
f 6/26/10 52/27/10 35/25/10 14/24/10
f 2/10/11 6/9/11 14/28/11 13/14/11
f 5/29/12 1/30/12 46/31/12 45/32/12
f 22/33/1 21/34/1 49/13/1 50/35/1
f 23/36/1 24/37/1 20/38/1 19/17/1
f 50/5/13 20/8/13 10/21/13 7/20/13
f 21/34/1 23/36/1 19/17/1 49/13/1
f 26/39/1 25/40/1 21/34/1 22/33/1
f 27/41/1 28/42/1 24/37/1 23/36/1
f 25/40/1 27/41/1 23/36/1 21/34/1
f 7/20/13 3/43/13 25/40/13 26/39/13
f 11/44/13 10/21/13 28/42/13 27/41/13
f 3/43/13 11/44/13 27/41/13 25/40/13
f 29/45/13 30/23/13 32/22/13 31/46/13
f 3/43/14 7/20/14 30/23/14 29/45/14
f 11/44/15 3/43/15 29/45/15 31/46/15
f 10/21/16 11/44/16 31/46/16 32/22/16
f 51/12/17 1/30/17 5/29/17 52/47/17
f 39/48/1 40/49/1 36/15/1 35/50/1
f 40/49/1 38/51/1 51/12/1 36/15/1
f 37/52/1 39/48/1 35/50/1 52/47/1
f 6/26/18 8/6/18 50/35/18 52/27/18
f 43/53/1 44/54/1 40/49/1 39/48/1
f 44/54/1 42/55/1 38/51/1 40/49/1
f 39/48/17 37/52/17 5/29/17 16/56/17
f 16/56/17 15/57/17 44/54/17 43/53/17
f 15/57/17 1/30/17 42/55/17 44/54/17
f 45/32/17 46/31/17 48/58/17 47/59/17
f 16/56/19 5/29/19 45/32/19 47/59/19
f 15/57/20 16/56/20 47/59/20 48/58/20
f 1/30/21 15/57/21 48/58/21 46/31/21
f 17/60/22 18/61/22 50/35/22 49/13/22
f 34/1/22 17/60/22 49/13/22 51/12/22
f 18/61/22 33/2/22 52/47/22 50/35/22
f 33/2/22 34/1/22 51/12/22 52/47/22
f 55/4/22 56/3/22 54/62/22 53/63/22
f 17/60/23 34/1/23 55/4/23 53/63/23
f 33/2/24 18/61/24 54/62/24 56/3/24
f 18/61/9 17/60/9 53/63/9 54/62/9
l 41 37
